<svg xmlns="http://www.w3.org/2000/svg" width="720" height="960" viewBox="0 0 720 960"><defs><linearGradient id="bg" x2="1" y2="1"><stop stop-color="#e3dece"/><stop offset="1" stop-color="#f5f2e9"/></linearGradient><filter id="s"><feDropShadow dx="5" dy="16" stdDeviation="17" flood-color="#263428" flood-opacity=".2"/></filter><pattern id="knit" width="18" height="16" patternUnits="userSpaceOnUse"><path d="m0 0 9 8 9-8M0 8l9 8 9-8" fill="none" stroke="#c7bea8" opacity=".55" stroke-width="1"/></pattern></defs><rect width="720" height="960" fill="url(#bg)"/><path d="M-160 0H80l640 890v70H460Z" fill="white" opacity=".18"/><g transform="rotate(-6 360 480)" filter="url(#s)"><path d="m290 229-102 50-97 346 73 24 83-218-10 319q125 46 251 0l-10-319 82 218 73-24-96-346-103-50Z" fill="#acbdc5"/><path d="m290 229 71 34 73-34-14 94-58-51-59 51Z" fill="#cfdae0" stroke="#8fabb7"/><path d="M362 272v504" stroke="#839ba6"/><g fill="#e9ece4"><circle cx="361" cy="331" r="3"/><circle cx="361" cy="399" r="3"/><circle cx="361" cy="467" r="3"/><circle cx="361" cy="535" r="3"/><circle cx="361" cy="603" r="3"/><circle cx="361" cy="671" r="3"/><circle cx="361" cy="739" r="3"/></g><path d="M402 341h59v60q-30 22-59 0Z" stroke="#8aabb9" fill="none"/><path d="m93 611 76 24m385 0 76-24" stroke="#8ba4b0" stroke-width="2"/></g><path d="M310 861h100" stroke="#9d9d89"/><text x="360" y="895" text-anchor="middle" font-family="Arial,sans-serif" font-size="12" letter-spacing="3" fill="#68715d">IMAGEM ILUSTRATIVA</text></svg>